<?xml version="1.0" encoding="UTF-8"?>
<svg version="1.1" xmlns="http://www.w3.org/2000/svg" width="60" height="60">
<path d="M0 0 C0.9075 0.350625 1.815 0.70125 2.75 1.0625 C5.87758436 1.96468779 7.05208081 2.13381507 10 1 C12.55036493 7.21651452 13.20426958 13.53145077 10.75 19.875 C9.07589589 22.86447163 7.91813664 24.28936818 5 26 C5.33 28.64 5.66 31.28 6 34 C6.51949219 33.26394531 7.03898437 32.52789062 7.57421875 31.76953125 C15.11327041 21.22043309 15.11327041 21.22043309 19 18 C19.99 18 20.98 18 22 18 C22.36595744 28.97872324 21.59301992 41.16852566 14.359375 50.00390625 C11.31773821 53.17117586 8.13490478 56.40965201 4 58 C-2.66366456 56.96342996 -8.13824436 52.20471062 -12.375 47.1875 C-15.88224313 40.3079077 -16.24173326 33.61459771 -16 26 C-10.96014269 26.44469329 -8.62365012 28.71343362 -5 32 C-4.34 30.35 -3.68 28.7 -3 27 C0 28 0 28 1 30 C1 28.35 1 26.7 1 25 C0.2575 24.814375 -0.485 24.62875 -1.25 24.4375 C-5.4727762 22.23013971 -7.18382809 18.55909387 -8.60546875 14.1015625 C-9.07304868 11.61088919 -9.09582477 9.2826824 -9.0625 6.75 C-9.05347656 5.85796875 -9.04445313 4.9659375 -9.03515625 4.046875 C-9.02355469 3.37140625 -9.01195312 2.6959375 -9 2 C-6.10765685 1.17361624 -4.11257569 1 -1 1 C-0.67 0.67 -0.34 0.34 0 0 Z M1 4 C1.33 5.32 1.66 6.64 2 8 C2.66 7.34 3.32 6.68 4 6 C3.01 5.34 2.02 4.68 1 4 Z M-6 5 C-5.74652808 11.41283954 -5.37796749 16.10697751 -1 21 C-0.01 21 0.98 21 2 21 C2.59594202 16.82840589 2.99046895 13.40189451 0.4765625 9.84375 C-2.33400948 6.59943907 -2.33400948 6.59943907 -6 5 Z M7 6 C4.96006486 10.92984325 3.59347032 14.57960425 4 20 C4.99 20 5.98 20 7 20 C8.99475484 15.88581814 9.34358086 12.55244646 9 8 C8.34 7.34 7.68 6.68 7 6 Z M16.546875 25.3984375 C10.62979754 31.90722271 4.78767712 40.0483041 4.9375 49.1875 C4.958125 50.445625 4.97875 51.70375 5 53 C11.5426085 49.34831153 14.66424694 44.60653326 17.25 37.625 C18.18601473 33.10092882 18.64810497 28.60241657 19 24 C17.78396755 23.88443028 17.78396755 23.88443028 16.546875 25.3984375 Z M-13 31 C-12.38186067 38.56905307 -11.33559347 43.94683866 -5.88671875 49.44140625 C-3.44047923 51.46221281 -0.95136973 52.84824596 2 54 C1.41965409 44.907914 -3.05301786 38.46922201 -9.44921875 32.21484375 C-10.93407626 30.79443918 -10.93407626 30.79443918 -13 31 Z " fill="#f87070" transform="translate(27,1)"/>
</svg>
